# xmcd
#
# Track frame offsets:
#	150
#	28871
#	47925
#	91092
#	107575
#	123925
#	137975
#	186773
#	206115
#	223949
#	243704
#	270356
#	289213
#	308154
#
# Disc length: 4316 seconds
#
# Revision: 1
# Processed by: cddbd v1.5.2PL0 Copyright (c) Steve Scherf et al.
# Submitted via: audiograbber 1.83.01
#
DISCID=d810da0e
DTITLE=James Brown - Fine Old Foxy Self - The 70's
DYEAR=2006
DGENRE=Soul
TTITLE0=It's A New Day
TTITLE1=Super Bad
TTITLE2=Giving Out of Juice
TTITLE3=I'm A Greedy Man Pt 1
TTITLE4=Get On the Good Foot Pt 1
TTITLE5=Sexy, Sexy, Sexy
TTITLE6=Mind Power
TTITLE7=My Thang
TTITLE8=Funky President
TTITLE9=Papa Don't Take No Mess
TTITLE10=Hot
TTITLE11=Get Up Offa That Thing
TTITLE12=Have A Happy Day
TTITLE13=For Goodness Sakes, Look At Those Cakes Pt 1
EXTD=
EXTT0=
EXTT1=
EXTT2=
EXTT3=
EXTT4=
EXTT5=
EXTT6=
EXTT7=
EXTT8=
EXTT9=
EXTT10=
EXTT11=
EXTT12=
EXTT13=
PLAYORDER=
